<?xml version="1.0" encoding="utf-8"?>
<!-- Generator: Adobe Illustrator 25.0.1, SVG Export Plug-In . SVG Version: 6.00 Build 0)  -->
<svg version="1.1" id="Layer_1" xmlns="http://www.w3.org/2000/svg" xmlns:xlink="http://www.w3.org/1999/xlink" x="0px" y="0px"
	 viewBox="0 0 402.94 107.82" style="enable-background:new 0 0 402.94 107.82;" xml:space="preserve">
<style type="text/css">
	.st0{fill:#C00036;}
	.st1{fill:#062E7F;}
	.st2{fill:url(#SVGID_1_);}
	.st3{fill:url(#SVGID_5_);}
	.st4{fill:url(#SVGID_6_);}
	.st5{fill:url(#SVGID_7_);}
	.st6{fill:url(#SVGID_8_);}
	.st7{fill:url(#SVGID_9_);}
	.st8{fill:url(#SVGID_10_);}
	.st9{fill:#777777;}
	.st10{fill:#B41035;}
</style>
<g>
	<g>
		<g>
			<g>
				<g>
					<rect x="183.84" y="48.08" class="st0" width="2.03" height="22.42"/>
					<g>
						<path class="st0" d="M192.41,53.28h6.02v1.18h-4.82v3.77h4.82v1.18h-4.82v5.9h-1.2V53.28z"/>
						<path class="st0" d="M199.29,63.06l1.02-0.61c0.72,1.32,1.55,1.99,2.49,1.99c0.4,0,0.78-0.09,1.14-0.28
							c0.35-0.19,0.62-0.44,0.81-0.76c0.18-0.32,0.28-0.65,0.28-1.01c0-0.4-0.14-0.8-0.41-1.19c-0.38-0.53-1.06-1.18-2.06-1.93
							c-1-0.76-1.63-1.31-1.87-1.64c-0.42-0.57-0.64-1.18-0.64-1.84c0-0.52,0.13-1,0.38-1.43c0.25-0.43,0.6-0.77,1.06-1.02
							c0.45-0.25,0.95-0.37,1.48-0.37c0.57,0,1.1,0.14,1.59,0.42c0.49,0.28,1.01,0.8,1.56,1.55l-0.98,0.74
							c-0.45-0.6-0.84-0.99-1.16-1.19c-0.32-0.19-0.67-0.29-1.04-0.29c-0.49,0-0.88,0.15-1.19,0.44c-0.31,0.29-0.46,0.66-0.46,1.09
							c0,0.26,0.05,0.52,0.16,0.76c0.11,0.25,0.31,0.51,0.6,0.8c0.16,0.15,0.67,0.55,1.55,1.2c1.04,0.77,1.75,1.45,2.14,2.05
							c0.39,0.6,0.58,1.2,0.58,1.81c0,0.87-0.33,1.63-0.99,2.27c-0.66,0.64-1.47,0.96-2.42,0.96c-0.73,0-1.39-0.2-1.98-0.58
							C200.34,64.63,199.79,63.97,199.29,63.06z"/>
						<path class="st0" d="M208.69,53.28h1.2V65.3h-1.2V53.28z"/>
					</g>
				</g>
			</g>
		</g>
		<g>
			<g>
				<g>
					<g>
						<g>
							<path class="st1" d="M105.23,62.25l1.8,0.95c-0.59,1.16-1.27,2.1-2.05,2.81c-0.78,0.71-1.65,1.26-2.62,1.63
								c-0.97,0.37-2.06,0.56-3.29,0.56c-2.71,0-4.83-0.89-6.36-2.67c-1.53-1.78-2.29-3.79-2.29-6.03c0-2.11,0.65-3.99,1.94-5.64
								c1.64-2.1,3.84-3.15,6.59-3.15c2.83,0,5.1,1.07,6.79,3.22c1.2,1.52,1.81,3.41,1.83,5.68H92.62c0.04,1.93,0.66,3.51,1.85,4.75
								c1.19,1.24,2.67,1.85,4.42,1.85c0.85,0,1.67-0.15,2.47-0.44c0.8-0.29,1.48-0.69,2.04-1.17
								C103.97,64.12,104.58,63.34,105.23,62.25z M105.23,57.77c-0.29-1.14-0.7-2.05-1.25-2.74c-0.55-0.68-1.27-1.23-2.17-1.65
								c-0.9-0.42-1.84-0.63-2.83-0.63c-1.63,0-3.03,0.53-4.21,1.57c-0.86,0.76-1.5,1.91-1.94,3.44H105.23z"/>
							<path class="st1" d="M125.91,51.14h2.14v13.25c0,2.33-0.2,4.04-0.61,5.12c-0.56,1.53-1.53,2.71-2.92,3.53
								c-1.39,0.82-3.05,1.24-5,1.24c-1.43,0-2.71-0.2-3.84-0.61c-1.14-0.4-2.06-0.94-2.77-1.62c-0.71-0.68-1.37-1.67-1.97-2.98
								h2.32c0.63,1.1,1.45,1.92,2.45,2.45c1,0.53,2.24,0.79,3.72,0.79c1.46,0,2.69-0.27,3.7-0.81c1-0.54,1.72-1.23,2.15-2.05
								c0.43-0.82,0.64-2.15,0.64-3.98v-0.86c-0.81,1.02-1.79,1.8-2.95,2.35c-1.16,0.54-2.4,0.82-3.7,0.82
								c-1.53,0-2.97-0.38-4.31-1.14c-1.35-0.76-2.39-1.78-3.12-3.06c-0.73-1.28-1.1-2.69-1.1-4.23s0.38-2.97,1.15-4.3
								c0.76-1.33,1.82-2.38,3.17-3.16s2.78-1.16,4.28-1.16c1.24,0,2.4,0.26,3.48,0.77c1.08,0.52,2.11,1.36,3.11,2.54V51.14z
								 M119.6,52.78c-1.21,0-2.34,0.29-3.38,0.88c-1.04,0.59-1.85,1.4-2.44,2.43c-0.59,1.03-0.89,2.15-0.89,3.35
								c0,1.82,0.61,3.33,1.83,4.52c1.22,1.19,2.81,1.79,4.75,1.79c1.97,0,3.55-0.59,4.75-1.77c1.2-1.18,1.79-2.74,1.79-4.66
								c0-1.25-0.27-2.37-0.83-3.35c-0.55-0.98-1.33-1.76-2.34-2.33C121.84,53.06,120.76,52.78,119.6,52.78z"/>
							<path class="st1" d="M149.19,51.14v16.63h-2.11v-2.86c-0.9,1.09-1.9,1.91-3.02,2.46c-1.12,0.55-2.33,0.82-3.66,0.82
								c-2.35,0-4.36-0.85-6.03-2.56c-1.67-1.71-2.5-3.78-2.5-6.23c0-2.39,0.84-4.44,2.52-6.14c1.68-1.7,3.7-2.55,6.07-2.55
								c1.37,0,2.6,0.29,3.71,0.87s2.08,1.45,2.91,2.61v-3.06H149.19z M140.64,52.78c-1.19,0-2.29,0.29-3.3,0.88
								c-1.01,0.58-1.81,1.41-2.4,2.47c-0.6,1.06-0.89,2.18-0.89,3.36c0,1.17,0.3,2.29,0.9,3.36c0.6,1.07,1.41,1.9,2.42,2.5
								c1.01,0.6,2.1,0.89,3.26,0.89c1.17,0,2.28-0.29,3.33-0.89c1.05-0.59,1.85-1.39,2.42-2.4c0.57-1.01,0.85-2.14,0.85-3.4
								c0-1.92-0.63-3.53-1.9-4.82C144.05,53.42,142.5,52.78,140.64,52.78z"/>
							<path class="st1" d="M154.15,67.77V44.3h2.14v9.28c0.9-1.1,1.9-1.92,3.01-2.47c1.11-0.54,2.33-0.82,3.65-0.82
								c2.35,0,4.36,0.85,6.02,2.56c1.67,1.71,2.5,3.78,2.5,6.21c0,2.4-0.84,4.46-2.52,6.16c-1.68,1.7-3.7,2.55-6.06,2.55
								c-1.35,0-2.58-0.29-3.68-0.87c-1.1-0.58-2.07-1.45-2.92-2.61v3.48H154.15z M162.7,65.71c1.19,0,2.29-0.29,3.3-0.88
								c1-0.59,1.81-1.41,2.4-2.47c0.6-1.06,0.89-2.18,0.89-3.36c0-1.18-0.3-2.31-0.9-3.38c-0.6-1.07-1.4-1.9-2.42-2.5
								c-1.01-0.6-2.09-0.89-3.24-0.89c-1.17,0-2.28,0.3-3.33,0.89c-1.05,0.6-1.86,1.4-2.43,2.41c-0.56,1.01-0.85,2.14-0.85,3.41
								c0,1.93,0.63,3.54,1.9,4.83C159.3,65.06,160.85,65.71,162.7,65.71z"/>
							<path class="st1" d="M176.1,44.3c0.49,0,0.9,0.17,1.25,0.52c0.35,0.35,0.52,0.76,0.52,1.25c0,0.48-0.17,0.89-0.52,1.24
								s-0.76,0.52-1.25,0.52c-0.48,0-0.89-0.17-1.23-0.52c-0.34-0.35-0.52-0.76-0.52-1.24c0-0.49,0.17-0.91,0.52-1.25
								C175.21,44.47,175.62,44.3,176.1,44.3z M175.04,51.14h2.14v16.63h-2.14V51.14z"/>
						</g>
					</g>
				</g>
			</g>
		</g>
		<linearGradient id="SVGID_1_" gradientUnits="userSpaceOnUse" x1="83.764" y1="49.66" x2="44.6502" y2="49.66">
			<stop  offset="0" style="stop-color:#41458D"/>
			<stop  offset="0.1062" style="stop-color:#3A428B"/>
			<stop  offset="0.2575" style="stop-color:#283B87"/>
			<stop  offset="0.4351" style="stop-color:#092F80"/>
			<stop  offset="0.4505" style="stop-color:#062E7F"/>
			<stop  offset="0.6314" style="stop-color:#062D7C"/>
			<stop  offset="0.7678" style="stop-color:#062872"/>
			<stop  offset="0.8891" style="stop-color:#062062"/>
			<stop  offset="1" style="stop-color:#06154C"/>
		</linearGradient>
		<path class="st2" d="M82.37,58.91L52.47,37.33l-2.06-1.48c-0.25-0.17-0.48-0.31-0.71-0.44c-0.83-0.58-1.31-0.91-1.31-0.91
			s-3.5-1.56-3.67,1.9c-0.03,0.64-0.06,1.25-0.07,1.81l9.45,7.58l19.37,13.98l7.24,5.41c0.44-0.31,0.8-0.56,1.06-0.75
			C85.87,61.47,82.37,58.91,82.37,58.91z"/>
		<g>
			<defs>
				<path id="SVGID_2_" d="M73.1,63.11c-2.49,1.79-19.83,13.74-19.83,13.74l-8.11,6.81c0.54,5.63,3.89,3.44,3.89,3.44
					s25.12-17.31,31.67-21.93l-7.24-5.41C73.47,59.77,75.59,61.32,73.1,63.11z"/>
			</defs>
			<linearGradient id="SVGID_3_" gradientUnits="userSpaceOnUse" x1="45.1523" y1="73.6431" x2="80.7073" y2="73.6431">
				<stop  offset="0" style="stop-color:#64619F"/>
				<stop  offset="0.0898" style="stop-color:#625F9E"/>
				<stop  offset="0.1318" style="stop-color:#5A599A"/>
				<stop  offset="0.1637" style="stop-color:#4E4F93"/>
				<stop  offset="0.1835" style="stop-color:#41458D"/>
				<stop  offset="0.2776" style="stop-color:#3D438C"/>
				<stop  offset="0.3803" style="stop-color:#2F3E89"/>
				<stop  offset="0.4866" style="stop-color:#1A3684"/>
				<stop  offset="0.5607" style="stop-color:#062E7F"/>
				<stop  offset="0.6658" style="stop-color:#062D7C"/>
				<stop  offset="0.745" style="stop-color:#062972"/>
				<stop  offset="0.8158" style="stop-color:#062262"/>
				<stop  offset="0.8815" style="stop-color:#07194B"/>
				<stop  offset="0.9433" style="stop-color:#070E2E"/>
				<stop  offset="1" style="stop-color:#08000C"/>
			</linearGradient>
			<use xlink:href="#SVGID_2_"  style="overflow:visible;fill:url(#SVGID_3_);"/>
			<clipPath id="SVGID_4_">
				<use xlink:href="#SVGID_2_"  style="overflow:visible;"/>
			</clipPath>
		</g>
		<linearGradient id="SVGID_5_" gradientUnits="userSpaceOnUse" x1="49.1377" y1="71.7042" x2="49.1377" y2="83.6607">
			<stop  offset="0" style="stop-color:#455BA1"/>
			<stop  offset="0.1421" style="stop-color:#43589C"/>
			<stop  offset="0.3102" style="stop-color:#3D4F8E"/>
			<stop  offset="0.4916" style="stop-color:#334176"/>
			<stop  offset="0.6823" style="stop-color:#262C55"/>
			<stop  offset="0.8783" style="stop-color:#14122A"/>
			<stop  offset="1" style="stop-color:#08000C"/>
		</linearGradient>
		<path class="st3" d="M50.87,73.56l-0.01-1.85c-3.19,0-5.11,0-5.84,0l0.07,9.96c-0.01,0.76,0.02,1.42,0.07,2l8.11-6.81
			C53.27,76.85,50.8,78.47,50.87,73.56z"/>
		<linearGradient id="SVGID_6_" gradientUnits="userSpaceOnUse" x1="45.9796" y1="46.3361" x2="50.313" y2="42.0027">
			<stop  offset="0" style="stop-color:#64619F"/>
			<stop  offset="0.0898" style="stop-color:#625F9E"/>
			<stop  offset="0.1318" style="stop-color:#5A599A"/>
			<stop  offset="0.1637" style="stop-color:#4E4F93"/>
			<stop  offset="0.1835" style="stop-color:#41458D"/>
			<stop  offset="0.2776" style="stop-color:#3D438C"/>
			<stop  offset="0.3803" style="stop-color:#2F3E89"/>
			<stop  offset="0.4866" style="stop-color:#1A3684"/>
			<stop  offset="0.5607" style="stop-color:#062E7F"/>
			<stop  offset="0.8605" style="stop-color:#060D2E"/>
			<stop  offset="1" style="stop-color:#06000D"/>
		</linearGradient>
		<path class="st4" d="M44.61,42.23c0,0,0.07,0.1,0.19,0.28c0.69,1,3.17,4.57,5.9,8.56l-0.03-3.58c0,0,0-4.02,3.41-1.69l-9.45-7.58
			C44.57,40.66,44.61,42.23,44.61,42.23z"/>
		<g>
			<g>
				<g>
					
						<radialGradient id="SVGID_7_" cx="219.5236" cy="452.098" r="0.0489" gradientTransform="matrix(2.1423 0 0 2.186 -430.8979 -941.4675)" gradientUnits="userSpaceOnUse">
						<stop  offset="0" style="stop-color:#D20052"/>
						<stop  offset="1" style="stop-color:#BF1825"/>
					</radialGradient>
					<path class="st5" d="M39.29,46.72l0.19,0.23C39.42,46.87,39.35,46.79,39.29,46.72z"/>
				</g>
			</g>
		</g>
		<g>
			
				<linearGradient id="SVGID_8_" gradientUnits="userSpaceOnUse" x1="211.4644" y1="460.3385" x2="226.6742" y2="460.3385" gradientTransform="matrix(2.1423 0 0 2.186 -430.8979 -941.4675)">
				<stop  offset="0" style="stop-color:#220504"/>
				<stop  offset="0.012" style="stop-color:#2D0507"/>
				<stop  offset="0.0612" style="stop-color:#540314"/>
				<stop  offset="0.114" style="stop-color:#75021E"/>
				<stop  offset="0.1701" style="stop-color:#910127"/>
				<stop  offset="0.2307" style="stop-color:#A6012E"/>
				<stop  offset="0.2982" style="stop-color:#B50032"/>
				<stop  offset="0.3777" style="stop-color:#BD0035"/>
				<stop  offset="0.5" style="stop-color:#C00036"/>
				<stop  offset="0.6606" style="stop-color:#BE0035"/>
				<stop  offset="0.7388" style="stop-color:#B60033"/>
				<stop  offset="0.7991" style="stop-color:#A9012F"/>
				<stop  offset="0.8504" style="stop-color:#970129"/>
				<stop  offset="0.8958" style="stop-color:#7E0221"/>
				<stop  offset="0.9371" style="stop-color:#610318"/>
				<stop  offset="0.9745" style="stop-color:#3E040D"/>
				<stop  offset="1" style="stop-color:#220504"/>
			</linearGradient>
			<path class="st6" d="M46.5,63.42H28.76c-1.64,0-2.67-1.52-1.85-2.74l-4.8,8.34h31.03c0.57,0,1.09-0.11,1.56-0.29l-6.35-8.05
				C49.17,61.9,48.14,63.42,46.5,63.42z"/>
			
				<linearGradient id="SVGID_9_" gradientUnits="userSpaceOnUse" x1="209.2722" y1="460.8483" x2="218.9708" y2="451.3439" gradientTransform="matrix(2.1423 0 0 2.186 -430.8979 -941.4675)">
				<stop  offset="0" style="stop-color:#D1003B"/>
				<stop  offset="0.3902" style="stop-color:#CF003B"/>
				<stop  offset="0.5308" style="stop-color:#C80039"/>
				<stop  offset="0.631" style="stop-color:#BD0036"/>
				<stop  offset="0.7121" style="stop-color:#AC0032"/>
				<stop  offset="0.7815" style="stop-color:#96002D"/>
				<stop  offset="0.843" style="stop-color:#7A0027"/>
				<stop  offset="0.8986" style="stop-color:#5A001F"/>
				<stop  offset="0.9485" style="stop-color:#350017"/>
				<stop  offset="0.994" style="stop-color:#0C000D"/>
				<stop  offset="0.9982" style="stop-color:#08000C"/>
			</linearGradient>
			<path class="st7" d="M35.78,47.53c0.76-1.13,2.59-1.21,3.5-0.23l-4.89-6.06l0,0l-15.51,23c-1.44,2.13,0.36,4.79,3.23,4.79h0
				l4.8-8.34L35.78,47.53z"/>
			<linearGradient id="SVGID_10_" gradientUnits="userSpaceOnUse" x1="34.4" y1="54.185" x2="56.8754" y2="54.185">
				<stop  offset="0" style="stop-color:#D1003B"/>
				<stop  offset="1" style="stop-color:#D20059"/>
			</linearGradient>
			<path class="st8" d="M56.37,64.23l-15.51-23c-1.44-2.13-5.02-2.13-6.46,0l4.89,6.06c0.07,0.07,0.13,0.15,0.19,0.23l8.87,13.15
				l6.35,8.05C56.59,67.99,57.52,65.94,56.37,64.23z"/>
		</g>
	</g>
	<rect x="218.59" y="34.15" class="st9" width="4" height="53.37"/>
	<g>
		<path class="st10" d="M272.82,49.38c-1.19,0-1.92-1.5-1.92-2.92c0-1.09,2.14-3.1,2.6-3.1c0.09,0-1.28,1.69-1,2.05
			c3.1,0,10.3-4.06,10.3-7.75c0-2.05-1.78-3.24-4.6-3.24c-14.04,0-38.62,23.8-37.61,36.52c0.32,3.83,3.15,4.88,6.66,4.88
			c8.57,0,22.52-7.71,33.33-16.46c0.05-0.05,0.55,0.18,0.36,0.27c-8.02,7.84-25.21,19.42-35.2,19.19c-4.88-0.09-9.12-2.23-9.39-7.8
			c-0.91-15.96,26.03-37.75,41.4-37.75c3.97,0,6.75,1.69,6.75,5.2C284.49,43.04,277.29,49.38,272.82,49.38z"/>
		<path class="st10" d="M287.73,62.01c-1.37,1.37-10.26,9.03-12.17,9.03c-0.09,0-0.32-0.09-0.41-0.14
			c-0.82-0.41-2.01-2.14-2.01-3.06c0-4.97,10.44-15.14,18.83-15.14c1.73,0,4.01,0.73,4.01,2.87c0,0.77-0.41,1.55-0.87,2.14
			c-0.09,0.05-0.18,0-0.14-0.05c0.23-0.41,0.5-0.96,0.5-1.64c0-1.37-0.87-2.05-2.23-1.96c-2.64,0.14-5.97,2.05-8.94,4.56
			c-4.33,3.69-7.75,9.44-7.34,9.67c0.09,0.05,0.18,0.05,0.32,0c1.5-0.5,7.89-5.11,10.26-7.11c0.82-0.73,3.78-3.6,4.92-4.24
			c0.91-0.46,2.46,2.05,2.28,2.6c-0.23-0.46-4.33,4.51-5.7,7.43c-0.27,0.64-0.46,1.19-0.46,1.55c2.87-0.82,9.39-7.07,12.22-9.71
			c0.23-0.23,0.46,0.14,0.32,0.27c-3.97,4.33-11.4,11.95-14.13,11.95c-0.23,0-0.46-0.09-0.78-0.27c-0.64-0.36-1.5-1.32-1.5-2.14
			c0-0.46,0.18-1,0.36-1.69C285.63,65.25,286.86,63.15,287.73,62.01z"/>
		<path class="st10" d="M305.1,53.03c0.27-0.18,0.46-0.23,0.64-0.23c1.09,0,2.83,1.78,2.83,2.92c0,0.18-0.14-0.05-0.5-0.09
			c-0.68-0.05-2.28,1.73-3.65,3.56c-1.23,1.64-2.83,3.78-3.78,5.47c2.42-3.15,6.98-6.98,10.9-9.8c1.78-1.28,3.15-2.05,4.1-2.14
			c0.5-0.05,2.37,1.92,2.05,2.28c-1,1.05-4.79,4.38-6.29,7.93c2.19-0.18,5.33-2.23,8.16-4.74c0.05-0.05,0.32-0.09,0.37,0
			c-0.82,1.09-6.29,6.2-9.44,6.2c-0.82,0-2.19-1.6-2.19-2.14c0-1.28,1.46-3.92,2.64-5.29c-4.19,2.46-6.34,4.29-9.44,7.71
			c-2.33,2.51-5.06,6.52-4.06,6.98c-1.32,0.32-2.42-1.09-2.74-2.37c-0.09-0.41,0.14-1.28,0.68-2.33c1.14-2.6,3.19-5.74,5.02-8.34
			C302,56.26,303.96,53.94,305.1,53.03z"/>
		<path class="st10" d="M317.31,68.16c-0.04,0.55,0.37,0.87,1.37,0.87c3.33,0,11.67-6.34,16.28-10.17c0.14-0.09,0.46,0.14,0.32,0.27
			c-3.42,3.19-12.49,11.9-18.56,11.9c-1.41,0-3.24-1.64-3.24-2.87c0-1.09,0.27-2.01,0.64-3.01c1.09-2.6,3.42-5.47,6.29-7.89
			c3.78-3.15,7.84-4.56,9.8-4.56c0.68,0,2.78,1.05,2.78,2.33c0,2.83-8.75,9.39-13.86,9.53C318.32,65.52,317.45,66.98,317.31,68.16z
			 M319.73,63.65c3.97-0.46,11.54-7.84,11.81-9.57C326.48,55.72,321.24,61.23,319.73,63.65z"/>
		<path class="st10" d="M333.09,68.16c-0.04,0.55,0.37,0.87,1.37,0.87c3.33,0,11.67-6.34,16.28-10.17c0.14-0.09,0.46,0.14,0.32,0.27
			c-3.42,3.19-12.49,11.9-18.56,11.9c-1.41,0-3.24-1.64-3.24-2.87c0-1.09,0.27-2.01,0.64-3.01c1.09-2.6,3.42-5.47,6.29-7.89
			c3.78-3.15,7.84-4.56,9.8-4.56c0.68,0,2.78,1.05,2.78,2.33c0,2.83-8.75,9.39-13.86,9.53C334.09,65.52,333.23,66.98,333.09,68.16z
			 M335.51,63.65c3.97-0.46,11.54-7.84,11.81-9.57C342.25,55.72,337.01,61.23,335.51,63.65z"/>
		<path class="st10" d="M355.2,53.03c0.27-0.18,0.46-0.23,0.64-0.23c1.09,0,2.83,1.78,2.83,2.92c0,0.18-0.14-0.05-0.5-0.09
			c-0.68-0.05-2.28,1.73-3.65,3.56c-1.23,1.64-2.83,3.78-3.78,5.47c2.42-3.15,6.98-6.98,10.9-9.8c1.78-1.28,3.15-2.05,4.1-2.14
			c0.5-0.05,2.37,1.92,2.05,2.28c-1,1.05-4.79,4.38-6.29,7.93c2.19-0.18,5.33-2.23,8.16-4.74c0.05-0.05,0.32-0.09,0.37,0
			c-0.82,1.09-6.29,6.2-9.44,6.2c-0.82,0-2.19-1.6-2.19-2.14c0-1.28,1.46-3.92,2.64-5.29c-4.19,2.46-6.34,4.29-9.44,7.71
			c-2.33,2.51-5.06,6.52-4.06,6.98c-1.32,0.32-2.42-1.09-2.74-2.37c-0.09-0.41,0.14-1.28,0.68-2.33c1.14-2.6,3.19-5.74,5.02-8.34
			C352.1,56.26,354.06,53.94,355.2,53.03z"/>
		<path class="st10" d="M370.43,60.82c-0.18,0.77,0.91,1.5,1.37,1.91c7.29-4.1,13.13-5.11,13.72-5.11c0.09,0,0.27,0.09,0.27,0.23
			c0.41,0.14-8.62,2.51-13.59,5.47c0.59,0.46,1.73,1.78,1.6,2.74c-0.64,2.96-6.66,5.38-9.62,5.38c-1,0-1.5-0.82-1.73-1.82
			c0.14-1.96,6.84-5.79,8.43-6.43c-0.5-0.64-3.19-2.28-2.78-4.29c0.73-3.47,7.29-6.88,11.31-6.88c1.28,0,1.87,2.1,1.73,3.42
			c-0.05,0.64-2.92,3.37-4.15,3.37c-0.04,0-0.14-0.18-0.09-0.18c0.14,0,3.19-3.19,3.28-4.1C378.09,54.35,371.02,58.68,370.43,60.82z
			 M363.64,69.12c1.78-0.5,7.43-3.42,7.43-5.15C368.33,65.52,364.96,67.8,363.64,69.12z"/>
	</g>
</g>
</svg>
